Coordinates
version=1
nRows=11
nColumns=36
inDegrees=yes

Units are S.I. units (second, meters, Newtons, ...)
If the header above contains a line with 'inDegrees', this indicates whether rotational values are in degrees (yes) or radians (no).

endheader
time	pelvis_tilt	pelvis_list	pelvis_rotation	pelvis_tx	pelvis_ty	pelvis_tz	hip_flexion_r	hip_adduction_r	hip_rotation_r	knee_angle_r	knee_angle_r_beta	ankle_angle_r	subtalar_angle_r	mtp_angle_r	hip_flexion_l	hip_adduction_l	hip_rotation_l	knee_angle_l	knee_angle_l_beta	ankle_angle_l	subtalar_angle_l	mtp_angle_l	lumbar_extension	lumbar_bending	lumbar_rotation	arm_flex_r	arm_add_r	arm_rot_r	elbow_flex_r	pro_sup_r	arm_flex_l	arm_add_l	arm_rot_l	elbow_flex_l	pro_sup_l
      7.45000000	      4.54099189	     -7.89214029	      0.62448379	     -0.16974933	      0.98441955	     -0.09551557	     32.70103549	      1.12817652	    -14.06698350	      9.18296576	      0.16027299	    -20.52515689	    -14.48713918	     -7.49999987	      3.35871806	     -3.69375939	     -3.26508897	     15.04751274	      0.26262864	      1.73386871	    -13.74605838	     -7.49999987	    -20.30776535	      2.90005054	     -1.29894804	     74.12232473	     15.53551372	     69.88943678	    119.75593021	     99.17183382	     53.94923275	      8.08755289	     52.04166420	    124.82847616	     78.17302499
      7.46666670	      4.90468183	     -7.62579769	      0.92561800	     -0.16915649	      0.98129862	     -0.09551916	     32.40565410	      0.95518551	    -14.27008657	      8.71426268	      0.15209258	    -20.58475996	    -14.57838482	     -7.49999987	      3.72609500	     -3.39442112	     -2.75328854	     16.53301035	      0.28855547	      1.70776692	    -14.75240264	     -7.49999987	    -20.79878573	      2.66230928	     -1.09808898	     74.48723009	     15.28962417	     69.73075660	    119.97833015	     98.03037619	     54.47808938	      8.55157695	     52.18600247	    124.50848281	     77.48072139
      7.48333330	      4.76369000	     -7.41737279	      1.13434938	     -0.16990824	      0.97883652	     -0.09585056	     32.89113433	      0.87913404	    -13.76302750	      8.68959168	      0.15166199	    -20.01144418	    -13.18241099	     -7.49999987	      4.50202597	     -3.11420569	     -2.50953477	     18.14406667	      0.31667370	      2.25642060	    -15.34520331	     -7.49999987	    -20.93184919	      2.47951369	     -0.85863637	     74.90550335	     15.06482948	     69.85467680	    120.51673752	     96.70594459	     54.85629532	      9.22425809	     52.85774711	    125.31703120	     76.82325716
      7.50000000	      4.84562934	     -7.29565180	      1.36551274	     -0.16955143	      0.97708976	     -0.09673163	     33.02351660	      0.84006692	    -12.86305983	      9.43159767	      0.16461243	    -18.92925459	    -12.14750589	     -7.49999987	      5.09604742	     -2.94830634	     -2.33038508	     19.57891391	      0.34171651	      2.63901430	    -15.89745434	     -7.49999987	    -21.05072045	      2.51222058	     -0.78484790	     74.95745883	     14.88095584	     69.91501888	    120.65283046	     96.09451024	     55.01828752	      9.78173870	     53.40852976	    125.76179591	     76.46932365
      7.51666670	      4.98544518	     -7.08034246	      1.40720010	     -0.16735252	      0.97547211	     -0.09747686	     33.10577951	      0.68809189	    -12.63749755	      9.89268342	      0.17265990	    -17.71347508	    -11.06409719	     -7.49999987	      5.55625967	     -2.71391183	     -2.59341092	     20.82716251	      0.36350256	      2.71856741	    -16.32213344	     -7.49999987	    -21.20829704	      2.40156733	     -0.89633009	     74.81150478	     14.87683789	     70.19762277	    120.89861386	     95.67438211	     55.10141602	      9.91147551	     53.93677038	    125.68394034	     76.20652829
      7.53333330	      5.05182626	     -6.98432622	      1.56590329	     -0.16706643	      0.97358367	     -0.09774544	     33.11416742	      0.51778478	    -12.64482637	     10.44106438	      0.18223095	    -16.62274142	    -10.57272805	     -7.49999987	      6.12540341	     -2.59029383	     -2.66287021	     22.29720878	      0.38915971	      1.27116595	    -17.65165919	     -7.49999987	    -21.38379687	      2.44472414	     -0.85442627	     74.69800788	     14.80283384	     70.29099388	    120.93771954	     99.89134282	     55.03763211	     10.10627743	     54.65571913	    126.21344673	     78.81456093
      7.55000000	      5.35099000	     -6.92834358	      1.56313572	     -0.16588417	      0.97104574	     -0.09749053	     32.98793086	      0.58477568	    -12.63561547	     10.71696000	      0.18704624	    -16.16087901	    -10.96296257	     -7.49999987	      6.57875252	     -2.61169928	     -3.26444116	     23.73560450	      0.41426445	      0.43333109	    -18.21697340	     -7.49999987	    -21.79323154	      2.44992931	     -0.83485198	     74.69771124	     14.82694762	     70.59559768	    121.20611159	     99.14390543	     55.07083438	      9.98027984	     54.96678446	    126.56927381	     78.32301158
      7.56666670	      5.64431821	     -6.85543892	      1.73037788	     -0.16247198	      0.96868236	     -0.09771596	     32.86527582	      0.68691764	    -11.49362268	     10.70196616	      0.18678455	    -15.09776224	    -10.36559546	     -7.49999987	      7.13662669	     -2.59707006	     -3.61101566	     25.40082686	      0.44332806	      0.62910251	    -18.95794896	     -7.49999987	    -22.20501981	      2.42199824	     -1.00556495	     74.45442546	     14.82585226	     70.62241267	    121.18336320	     99.21858757	     55.05504671	      9.68227943	     54.91541079	    126.45528100	     78.37942996
      7.58333330	      6.03251450	     -6.71047022	      1.76818576	     -0.15955339	      0.96494102	     -0.09914160	     32.57486457	      0.62402526	    -11.23120177	     11.09833444	      0.19370248	    -13.26674980	     -9.02348802	     -7.49999987	      7.41968726	     -2.46032788	     -3.95797138	     26.97040670	      0.47072240	     -0.65048764	    -20.66209733	     -7.49999987	    -22.50340717	      2.27163005	     -1.16744457	     74.04331098	     14.66872707	     70.56450716	    121.04991046	     99.42312178	     54.91049145	      9.53133632	     55.04466278	    126.08264634	     78.52917929
      7.60000000	      6.22016508	     -6.72246555	      1.41938638	     -0.15659922	      0.95897768	     -0.09851477	     32.53429775	      1.00169997	    -10.61458240	     10.74665610	      0.18756453	    -12.29914583	     -8.29809595	     -7.49999987	      7.76128192	     -2.54182788	     -4.57836349	     28.47391426	      0.49696355	     -0.24823665	    -21.54273144	     -7.49999987	    -22.56679156	      2.20917508	     -1.10086753	     73.78942747	     14.77875891	     70.31685747	    120.97746519	     99.47288426	     54.74660044	      9.30570367	     54.87972315	    125.44195976	     78.58333087
      7.61666670	      6.52953792	     -6.71841628	      1.12127065	     -0.15550681	      0.95553441	     -0.09898945	     32.50702508	      1.22056475	    -10.61037713	     10.65695664	      0.18599898	    -12.20332283	     -8.81794759	     -7.49999987	      8.05778773	     -2.55695620	     -5.18727398	     30.25475533	      0.52804509	     -1.39793590	    -23.15546561	     -7.49999987	    -22.84434392	      2.13816346	     -1.10181927	     73.80724023	     14.90946252	     70.42013691	    121.06125435	     97.62712583	     54.79843407	      9.13200338	     55.16660658	    124.84860706	     77.15156057
